Coordinates
version=1
nRows=22
nColumns=24
inDegrees=yes

Units are S.I. units (second, meters, Newtons, ...)
Angles are in degrees.

endheader
time	pelvis_tilt	pelvis_list	pelvis_rotation	pelvis_tx	pelvis_ty	pelvis_tz	hip_flexion_r	hip_adduction_r	hip_rotation_r	knee_angle_r	ankle_angle_r	subtalar_angle_r	mtp_angle_r	hip_flexion_l	hip_adduction_l	hip_rotation_l	knee_angle_l	ankle_angle_l	subtalar_angle_l	mtp_angle_l	lumbar_extension	lumbar_bending	lumbar_rotation
      4.53000000	     -9.39046942	      5.12076522	     -1.04551148	     -0.73634424	     -0.01755106	     -0.36689240	     28.30549623	     -9.21701663	     -4.13335346	    -63.38547674	    -11.91685391	      3.03325246	     28.91970170	     16.33272270	      9.72933863	      8.98650734	    -18.78249179	      7.49105223	      2.11506469	    -11.51489118	      8.84280844	     -9.18753859	     -6.37344156
      4.53500000	     -9.31581343	      4.79332834	     -0.97148274	     -0.73021190	     -0.01658446	     -0.36726946	     28.90918560	     -8.84080869	     -4.36136621	    -62.73183989	    -11.26498376	      3.50630971	     28.98254585	     15.50054420	      9.45591488	      9.45928246	    -18.28037595	      7.66895534	      1.80262700	    -11.92118596	      8.71614632	     -8.83634807	     -6.51761990
      4.54000000	     -9.25158499	      4.47513905	     -0.89616361	     -0.72410890	     -0.01571287	     -0.36762890	     29.50842702	     -8.47141068	     -4.59445568	    -62.02366311	    -10.62605945	      3.93764011	     28.95058034	     14.69306955	      9.18178856	      9.90636100	    -17.79375842	      7.86218025	      1.52010620	    -12.33610318	      8.60065686	     -8.49201970	     -6.65311218
      4.54500000	     -9.19278929	      4.17262390	     -0.81928771	     -0.71802344	     -0.01493071	     -0.36796003	     30.09712133	     -8.11772088	     -4.83805754	    -61.26308257	     -9.99977417	      4.32381968	     28.81538414	     13.89829634	      8.91410302	     10.33928321	    -17.31367269	      8.07256132	      1.26103873	    -12.78166375	      8.49425560	     -8.16992031	     -6.77135120
      4.55000000	     -9.15057991	      3.88632065	     -0.74156498	     -0.71196078	     -0.01425623	     -0.36826126	     30.68731088	     -7.77396637	     -5.07692208	    -60.44889676	     -9.39373018	      4.65447503	     28.60113751	     13.13360852	      8.65099211	     10.72948406	    -16.84545978	      8.29961067	      1.04731765	    -13.21677321	      8.40836876	     -7.86739899	     -6.87768043
      4.55500000	     -9.21687928	      3.63356281	     -0.73316839	     -0.70594583	     -0.01382062	     -0.36843663	     31.41273291	     -7.40640372	     -5.22443584	    -59.58546990	     -8.92045777	      4.80916798	     28.55171791	     12.51771289	      8.38063429	     10.91624873	    -16.39689189	      8.50690362	      0.97786934	    -13.32050134	      8.45485856	     -7.58163153	     -6.86446529
      4.56000000	     -9.09188666	      3.37901368	     -0.56335193	     -0.69988490	     -0.01320917	     -0.36880127	     31.83422869	     -7.14942771	     -5.55764219	    -58.64701127	     -8.25143409	      5.14729866	     28.12389908	     11.65595696	      8.16284386	     11.40909163	    -15.91360026	      8.71207160	      0.72810626	    -13.84142600	      8.26819018	     -7.34366107	     -7.09162547
      4.56500000	     -9.18063602	      3.17697545	     -0.55030225	     -0.69388483	     -0.01298608	     -0.36893311	     32.54206295	     -6.82137567	     -5.67639972	    -57.67162245	     -7.79238085	      5.25621845	     28.00838894	     11.06997131	      7.93381764	     11.56632919	    -15.46342257	      8.92665361	      0.67960568	    -13.95113845	      8.34691211	     -7.12043757	     -7.06448201
      4.57000000	     -9.07354511	      2.96718576	     -0.37607103	     -0.68784732	     -0.01259096	     -0.36922368	     32.94591671	     -6.59362485	     -5.98903328	    -56.63627846	     -7.12442905	      5.50609171	     27.38515170	     10.24304144	      7.74099527	     12.00739234	    -14.99652637	      9.16703781	      0.50288874	    -14.48217947	      8.18793821	     -6.93652329	     -7.27325942
      4.57500000	     -9.18154626	      2.81476505	     -0.34778700	     -0.68184806	     -0.01256704	     -0.36930013	     33.62351798	     -6.31061725	     -6.09242971	    -55.54293202	     -6.67151721	      5.61601972	     27.23746505	      9.68456565	      7.55355274	     12.12840720	    -14.54951909	      9.38576972	      0.48999499	    -14.58521817	      8.29091734	     -6.78357840	     -7.25954871
      4.58000000	     -9.25957468	      2.68702447	     -0.26638604	     -0.67591774	     -0.01261779	     -0.36936029	     34.22996017	     -6.05839395	     -6.19309477	    -54.38562967	     -6.15245946	      5.69781051	     27.10152361	      9.11223035	      7.39577617	     12.31616010	    -14.13456784	      9.59616847	      0.50856713	    -14.65746978	      8.33999070	     -6.68070802	     -7.30597028
      4.58500000	     -9.12530050	      2.53222421	     -0.06639396	     -0.66987097	     -0.01243913	     -0.36962946	     34.52661220	     -5.88968423	     -6.49143963	    -53.19053953	     -5.46530268	      6.02482337	     26.22395830	      8.25507497	      7.24040166	     12.74217333	    -13.65666491	      9.86580970	      0.40900492	    -15.20159939	      8.15465417	     -6.55789883	     -7.53426939
      4.59000000	     -9.26099501	      2.44742445	     -0.01992142	     -0.66391657	     -0.01274019	     -0.36964438	     35.15880498	     -5.65716838	     -6.54024975	    -51.92565034	     -4.99326359	      6.14460326	     26.13949034	      7.75686882	      7.11727251	     12.81872677	    -13.25514298	     10.09057361	      0.42646572	    -15.23075499	      8.28622106	     -6.48868771	     -7.55076073
      4.59500000	     -9.21099474	      2.32581799	      0.16866253	     -0.65793593	     -0.01283201	     -0.36984680	     35.50108526	     -5.49721414	     -6.76681574	    -50.59776108	     -4.32536440	      6.55282616	     25.55790204	      7.04168639	      6.97638807	     13.07707083	    -12.84416355	     10.36091011	      0.47107575	    -15.54856725	      8.19022524	     -6.40432201	     -7.74018441
      4.60000000	     -9.26267275	      2.25340781	      0.26717776	     -0.65197218	     -0.01314261	     -0.36988917	     35.96289596	     -5.30508892	     -6.84177329	    -49.22671759	     -3.73563675	      6.91636533	     25.10734589	      6.44639475	      6.86645648	     13.22035914	    -12.44275289	     10.63400531	      0.52625189	    -15.79282399	      8.22100332	     -6.35961639	     -7.81421759
      4.60500000	     -9.36203856	      2.19030620	      0.36033455	     -0.64602956	     -0.01355019	     -0.36991014	     36.44952622	     -5.11553202	     -6.89397148	    -47.77440031	     -3.27672879	      7.26409320	     24.94323928	      5.90979307	      6.75817030	     13.31518798	    -12.03757051	     10.85454763	      0.61499581	    -15.85973818	      8.30471490	     -6.32584063	     -7.89632895
      4.61000000	     -9.37239832	      2.13945275	      0.49600172	     -0.64014601	     -0.01392830	     -0.36991401	     36.79242396	     -4.95048434	     -6.93507697	    -46.26174601	     -2.69331082	      7.76416231	     24.68932523	      5.29658724	      6.66202818	     13.44395847	    -11.67025912	     11.10276448	      0.74873757	    -15.95090733	      8.26617260	     -6.32782637	     -8.04870372
      4.61500000	     -9.41685424	      2.09442770	      0.60495402	     -0.63422916	     -0.01438027	     -0.36990264	     37.14415884	     -4.77779314	     -6.94763644	    -44.69114931	     -2.16187263	      8.31884618	     24.45078761	      4.71545373	      6.56556132	     13.51536570	    -11.29039236	     11.33666297	      0.89387787	    -16.02009521	      8.27750999	     -6.32323708	     -8.16849443
      4.62000000	     -9.55462034	      2.05686825	      0.68458624	     -0.62836751	     -0.01496498	     -0.36979067	     37.57105458	     -4.56649808	     -6.85439328	    -43.04017031	     -1.76242909	      8.81528800	     24.38445001	      4.24907369	      6.46908009	     13.56916379	    -10.92462069	     11.52675326	      1.00823211	    -16.00901912	      8.38541433	     -6.32957920	     -8.26532368
      4.62500000	     -9.50653056	      2.04330065	      0.80776591	     -0.62242956	     -0.01541139	     -0.36979626	     37.74776739	     -4.45488644	     -6.88824852	    -41.36794764	     -1.17665689	      9.62168415	     24.16891449	      3.57407750	      6.39685406	     13.56870585	    -10.55464932	     11.77007716	      1.28770096	    -16.01504675	      8.29783447	     -6.36347386	     -8.43357028
      4.63000000	     -9.63912571	      2.00598673	      0.89042589	     -0.61659157	     -0.01605905	     -0.36965944	     38.08562695	     -4.23653333	     -6.71894095	    -39.59225920	     -0.79492561	     10.26177307	     24.08280278	      3.12109771	      6.29612178	     13.58608138	    -10.22062819	     11.96212359	      1.44334290	    -15.98542340	      8.38752098	     -6.36877093	     -8.54518799
      4.63500000	     -9.60877619	      1.99381016	      0.98235804	     -0.61061871	     -0.01659050	     -0.36957573	     38.20958296	     -4.10409891	     -6.69047451	    -37.81383695	     -0.27881005	     11.17062369	     23.90352257	      2.46297103	      6.20835672	     13.50250940	     -9.84082210	     12.19830188	      1.80072052	    -15.93083300	      8.32411154	     -6.40282026	     -8.68869057
